<?xml version="1.0" encoding="UTF-8" standalone="no"?>
<!-- Uploaded to: SVG Repo, www.svgrepo.com, Generator: SVG Repo Mixer Tools -->

<svg
   width="800"
   height="800"
   viewBox="0 0 128 128"
   data-name="Layer 1"
   id="Layer_1"
   version="1.1"
   sodipodi:docname="ganip avatar-man-muslim-svgrepo-com.svg"
   inkscape:version="1.2.2 (732a01da63, 2022-12-09)"
   xml:space="preserve"
   inkscape:export-filename="hi.svg"
   inkscape:export-xdpi="96"
   inkscape:export-ydpi="96"
   xmlns:inkscape="http://www.inkscape.org/namespaces/inkscape"
   xmlns:sodipodi="http://sodipodi.sourceforge.net/DTD/sodipodi-0.dtd"
   xmlns="http://www.w3.org/2000/svg"
   xmlns:svg="http://www.w3.org/2000/svg"><sodipodi:namedview
     id="namedview361"
     pagecolor="#505050"
     bordercolor="#eeeeee"
     borderopacity="1"
     inkscape:showpageshadow="0"
     inkscape:pageopacity="0"
     inkscape:pagecheckerboard="0"
     inkscape:deskcolor="#505050"
     showgrid="false"
     inkscape:zoom="0.35532116"
     inkscape:cx="3403.9628"
     inkscape:cy="451.70403"
     inkscape:window-width="1920"
     inkscape:window-height="991"
     inkscape:window-x="-9"
     inkscape:window-y="-9"
     inkscape:window-maximized="1"
     inkscape:current-layer="Layer_1" /><defs
     id="defs302"><style
       id="style300">.cls-1,.cls-14{fill:#515570;}.cls-2{fill:#6b718e;}.cls-3{fill:#ffffff;}.cls-11,.cls-4,.cls-9{fill:#393c54;}.cls-4{opacity:0.2;}.cls-5{fill:#a7aece;}.cls-10,.cls-12,.cls-6,.cls-8{fill:none;stroke-linecap:round;}.cls-12,.cls-6{stroke:#fba875;stroke-miterlimit:10;}.cls-6{stroke-width:18px;}.cls-7{fill:#ffbb94;}.cls-8{stroke:#515570;}.cls-10,.cls-8{stroke-linejoin:round;stroke-width:2px;}.cls-14,.cls-8{opacity:0.4;}.cls-13,.cls-9{opacity:0.1;}.cls-10{stroke:#f85565;}.cls-12{stroke-width:6px;}.cls-13{fill:#356cb6;}</style></defs><title
     id="title304" /><path
     class="cls-3"
     d="m 64.281435,132.46 c 13.600436,0.0253 14.86777,4.25037 25.029952,-5.5 l -2.039478,-21.41 c -1.58523,-4 -6.042201,-5.05298 -10.466228,-6.64 L 63.491857,94.133961 51.757189,98.91 c -4.353313,1.77181 -8.880997,2.66 -10.466227,6.64 l -2.039478,21.41 c 10.162182,9.75037 11.429517,5.52532 25.029951,5.5 z"
     id="path1647"
     sodipodi:nodetypes="cccscsccc"
     style="stroke-width:0.962827" /><polygon
     class="cls-5"
     points="53.22,95.47 74.78,95.47 74,100.95 54,100.95 "
     id="polygon1649"
     transform="matrix(0.85672372,0,0,0.73557577,9.39483,23.959293)" /><path
     class="cls-5"
     d="m 64,131.45 h 1 V 107 c 0,-1.33333 -2,-1.33333 -2,0 v 24.4 z"
     id="path1651"
     sodipodi:nodetypes="ccsscc" /><path
     style="fill:#e5ac8c;fill-opacity:1;stroke:none;stroke-width:1.10594;stroke-linecap:round;stroke-linejoin:round;stroke-dasharray:none;stroke-dashoffset:30.918;stroke-opacity:1"
     d="m 57.691115,91.033252 -0.278266,8.873715 1.576832,2.039943 4.359476,1.73394 4.637741,-0.81597 2.504379,-2.34593 0.09276,-10.403669 -5.936309,-1.631948 z"
     id="path1653" /><path
     class="cls-7"
     d="m 64,94.046368 c -11.382244,0.003 -21.197104,-5.0156 -25.697184,-12.254504 -1.684528,-2.70976 -1.191485,-4.53661 -1.18998,-7.721671 L 35.68,63.442265 C 34.117842,51.855104 48.359296,42.272068 64,42.272068 c 15.640704,0 29.597023,9.548156 28.32,21.170197 l -1.19403,10.866734 c 0.0014,3.052636 0.969078,4.521624 -0.585735,7.143273 C 86.139049,88.873337 75.559392,94.049421 64,94.046368 Z"
     id="path1655"
     style="stroke-width:0.864601"
     sodipodi:nodetypes="cscssscsc" /><path
     class="cls-3"
     d="M 64.225149,100.64307 A 9.4239612,8.0913334 0 0 1 54.989667,94.17 a 9.7666504,8.3855637 0 0 0 -0.18848,1.618267 9.4239612,8.0913334 0 0 0 18.847922,0 A 9.7666504,8.3855637 0 0 0 73.46063,94.17 a 9.4239612,8.0913334 0 0 1 -9.235481,6.47307 z"
     id="path1657"
     style="stroke-width:0.793842" /><path
     class="cls-9"
     d="M 64.225149,102.24307 A 9.4239612,8.0913334 0 0 1 54.989667,95.77 a 9.7666504,8.3855637 0 0 0 -0.18848,1.618267 9.4239612,8.0913334 0 0 0 18.847922,0 A 9.7666504,8.3855637 0 0 0 73.46063,95.77 a 9.4239612,8.0913334 0 0 1 -9.235481,6.47307 z"
     id="path1659"
     style="stroke-width:0.793842" /><circle
     class="cls-1"
     cx="68"
     cy="113.95"
     r="1.5"
     id="circle1661" /><circle
     class="cls-1"
     cx="68"
     cy="120.95"
     r="1.5"
     id="circle1663" /><path
     class="cls-13"
     d="m 46.97,99.28 a 12.7,12.7 0 0 0 -10.08,4.59 l 11.94,6 a 1,1 0 0 0 1.45,-0.89 v -9.7 z"
     id="path1665" /><path
     class="cls-13"
     d="m 79.75,98.96 h -5.31 v 9.67 a 1,1 0 0 0 1.45,0.89 l 13.35,-6.67 a 13,13 0 0 0 -9.49,-3.89 z"
     id="path1667" /><circle
     class="cls-11"
     cx="78"
     cy="71.671883"
     r="3"
     id="circle1669" /><path
     class="cls-7"
     d="m 78.72638,76.366842 c -5.119056,-0.483431 -5.037291,-1.937916 -5.22463,-5.820692 -0.0014,-3.264362 2.150203,-7.421002 5.770944,-6.982612 2.813591,0.340661 5.201484,1.892386 5.202556,4.429041 0.665655,4.6149 -0.879186,7.154822 -5.74887,8.374263 z"
     id="path1671"
     style="fill:#f9f9f9;stroke-width:0.17483"
     sodipodi:nodetypes="ccscc" /><ellipse
     class="cls-11"
     cx="77.728699"
     cy="71.33416"
     id="ellipse1673"
     rx="4.125742"
     ry="5.1389098"
     style="stroke-width:1.41227" /><ellipse
     class="cls-11"
     cx="75.190979"
     cy="74.317375"
     id="ellipse1675"
     rx="0.91257381"
     ry="1.2550997"
     style="fill:#ffffff;stroke-width:0.356739" /><path
     style="fill:none;stroke:#4d4d4d;stroke-width:2.4;stroke-linecap:round;stroke-linejoin:round;stroke-dasharray:none;stroke-dashoffset:4.94688;stroke-opacity:1"
     d="m 75.593585,64.126611 c 8.295471,-3.337844 9.845497,5.752958 8.668214,9.962818"
     id="path1677"
     sodipodi:nodetypes="cc" /><ellipse
     class="cls-11"
     cx="77.723892"
     cy="71.503021"
     id="ellipse1679"
     rx="1.7568804"
     ry="1.930545"
     style="fill:#000000;stroke-width:0.613887" /><circle
     class="cls-11"
     cx="48.05526"
     cy="71.671883"
     r="3"
     id="circle1681" /><path
     class="cls-7"
     d="m 48.781639,76.366842 c -5.119056,-0.483431 -5.196495,-1.69911 -5.861446,-5.661488 -0.0014,-3.264362 2.787019,-7.580206 6.40776,-7.141816 2.813591,0.340661 3.458241,1.838927 4.016527,4.534786 0.665655,4.6149 0.30684,7.049077 -4.562841,8.268518 z"
     id="path1683"
     style="fill:#f9f9f9;stroke-width:0.17483"
     sodipodi:nodetypes="ccscc" /><ellipse
     class="cls-11"
     cx="49.359997"
     cy="71.446732"
     id="ellipse1685"
     rx="4.125742"
     ry="5.1389098"
     style="stroke-width:1.41227" /><ellipse
     class="cls-11"
     cx="46.934845"
     cy="74.204803"
     id="ellipse1687"
     rx="0.79999959"
     ry="1.367674"
     style="fill:#ffffff;stroke-width:0.34867" /><path
     style="fill:none;stroke:#4d4d4d;stroke-width:2.4;stroke-linecap:round;stroke-linejoin:round;stroke-dasharray:none;stroke-dashoffset:4.94688;stroke-opacity:1"
     d="m 51.648215,64.014037 c -8.295471,-3.337844 -9.845497,5.752958 -8.668214,9.962818"
     id="path1689"
     sodipodi:nodetypes="cc" /><ellipse
     class="cls-11"
     cx="49.35519"
     cy="71.615593"
     id="ellipse1691"
     rx="1.7568804"
     ry="1.930545"
     style="fill:#000000;stroke-width:0.613887" /><path
     class="cls-3"
     d="m 100.59295,55.903909 c 0,-3.339949 1.50286,-5.452588 0.75877,-7.966038 -0.80626,-2.723462 -3.926464,-5.808684 -5.669027,-8.486137 -2.296201,-3.528122 -5.504134,-8.494656 -9.346755,-10.711198 -5.871407,-3.386812 -14.351769,-4.639762 -22.103584,-4.639762 -1.015121,0 -5.411435,-3.616374 -6.848706,-3.592601 -1.114266,0.01844 0.717388,3.671259 -0.129974,3.70938 -6.539212,0.294182 -12.136977,1.24488 -16.780894,3.935939 -0.788862,0.45713 4.580754,1.200521 3.871013,1.727599 -2.886807,2.143843 -10.092862,4.811494 -12.829834,7.862013 -2.006393,2.236248 -4.976914,6.712828 -5.524617,9.305058 -0.720916,3.412035 1.350391,5.049767 1.350391,8.855747 v 0 4.44241 c 3.811709,-0.621871 13.714027,1.52416 18.432532,-8.879647 8.980253,7.571822 11.329779,11.21624 17.890279,11.057478 1.524993,-2.97745 0.541631,-4.213495 -1.624818,-8.84055 4.742684,5.270627 7.045237,6.328185 11.424566,6.759911 0.370599,-3.775442 0.643371,-4.187727 0.474781,-6.702266 1.706698,3.124438 10.589563,3.449795 11.972397,4.215292 0.826342,0.45744 -0.376799,-2.676717 -0.376799,-2.676717 0,0 7.18585,9.626728 9.087082,10.334551 2.764691,1.029286 5.973197,-5.268052 5.973197,-5.268052 z"
     id="path1693"
     sodipodi:nodetypes="sssssssssssscccccccscscs"
     style="fill:#333333;fill-opacity:1;stroke-width:1.14549" /><path
     class="cls-3"
     d="m 32.129933,52.653935 c -5.756362,12.769354 0.346171,14.416829 0.346171,14.416829 l 1.089593,5.912778 2.439825,3.444775 c 0,0 0.193348,-5.227079 2.163382,-7.195147 3.695739,-3.692051 1.221457,-11.340779 3.086353,-14.774763 -3.491941,-2.071317 -5.88736,-3.191732 -9.125324,-1.804472 z"
     id="path1695"
     sodipodi:nodetypes="ccccscc"
     style="fill:#333333;fill-opacity:1" /><path
     class="cls-3"
     d="m 95.6887,52.991658 c 3.527504,11.01811 -0.590634,13.665782 -0.590634,13.665782 l -1.448452,8.439301 c 0,0 -4.011977,-2.817164 -3.132263,-5.459218 2.28572,-6.864724 -2.08908,-11.407409 -3.953975,-14.841393 3.491941,-2.071317 5.88736,-3.191732 9.125324,-1.804472 z"
     id="path1697"
     sodipodi:nodetypes="cccscc"
     style="fill:#333333;fill-opacity:1" /><path
     style="fill:none;stroke:#1a1a1a;stroke-width:1.28;stroke-linecap:round;stroke-linejoin:round;stroke-dasharray:none;stroke-dashoffset:4.94688;stroke-opacity:1"
     d="m 75.030714,58.723049 c 1.766166,-1.649231 7.594012,-1.226644 8.780788,0.39401"
     id="path1699"
     sodipodi:nodetypes="cc" /><path
     style="fill:none;stroke:#1a1a1a;stroke-width:1.28;stroke-linecap:round;stroke-linejoin:round;stroke-dasharray:none;stroke-dashoffset:4.94688;stroke-opacity:1"
     d="m 52.290722,58.160178 c -1.766166,-1.649231 -7.594012,-1.226644 -8.780788,0.39401"
     id="path1701"
     sodipodi:nodetypes="cc" /><path
     style="fill:none;stroke:#e6e6e6;stroke-width:1.28;stroke-linecap:round;stroke-linejoin:round;stroke-dasharray:none;stroke-dashoffset:4.94688;stroke-opacity:1"
     d="m 47.9708,132.97355 c 1.23995,-1.0513 1.53157,-12.44465 1.53157,-12.44465"
     id="path1703"
     sodipodi:nodetypes="cc" /><path
     style="fill:none;stroke:#e6e6e6;stroke-width:1.28;stroke-linecap:round;stroke-linejoin:round;stroke-dasharray:none;stroke-dashoffset:4.94688;stroke-opacity:1"
     d="M 81.50237,132.97355 C 80.26242,131.92225 79.9708,120.5289 79.9708,120.5289"
     id="path1705"
     sodipodi:nodetypes="cc" /><path
     class="cls-7"
     d="m 64.22442,92.844455 c -5.11905,-0.216574 -5.6741,-2.671637 -6.33905,-4.446755 -0.001,-1.462412 2.99286,-0.441634 6.6136,-0.245239 2.81359,0.152614 4.36683,-1.334398 4.92511,-0.126672 0.66566,2.067443 -0.32998,4.272365 -5.19966,4.818666 z"
     id="path1707"
     style="fill:#ff8080;stroke-width:0.117018"
     sodipodi:nodetypes="ccscc" /></svg>
